<svg version="1.2" xmlns="http://www.w3.org/2000/svg" viewBox="0 0 2561 1588" width="2561" height="1588">
	<title>vecteezy_internet-network-warning-404-error-page-or-file-not-found_-ai</title>
	<style>
		.s0 { fill: #f6f9ff } 
		.s1 { fill: #d4dfff } 
		.s2 { fill: #1c056d } 
		.s3 { fill: #1b3d9e } 
		.s4 { fill: #6880e4 } 
		.s5 { opacity: .5;fill: #6880e4 } 
		.s6 { fill: #ffffff } 
		.s7 { opacity: .5;fill: #1b3d9e } 
		.s8 { fill: #fc476a } 
		.s9 { fill: #d40221 } 
		.s10 { opacity: .2;fill: #6880e4 } 
		.s11 { fill: #fe8e9c } 
		.s12 { fill: #e57492 } 
	</style>
	<g id="_Artboards_">
	</g>
	<g id="Layer 1">
		<path id="&lt;Path&gt;" class="s0" d="m823.6 1404.6c-108.8-32.3-213.5-74.2-304.1-132.1-391.7-249.9-305.6-828.6 1.7-1109.9 96.4-88.1 221.3-149.7 352.4-160.6 146.7-12.2 300.4 33.9 410.8 132.5 100.4 89.6 159.3 212.6 289.9 265.7 151.4 61.6 319.3 37.5 478 55.7 311.9 35.9 515.8 309.2 446.9 621.1-79.9 361.5-412.1 442-734.2 454.5-186.7 7.3-373.4-11.4-557.3-43.1-122.9-21.3-256.3-45.8-384.1-83.8z"/>
		<g id="&lt;Group&gt;">
			<g id="&lt;Group&gt;">
				<g id="&lt;Group&gt;">
					<path id="&lt;Path&gt;" class="s1" d="m461 968.4c-16 14.1-39.7 18.5-59.7 11.3-20-7.3-35.3-26-38.6-47-3.8-24.7 6.8-54.4-10.7-72.3-8.8-8.9-22.7-12-30.2-22.2-6.2-8.5-6.3-19.8-6.2-30.4q0.3-28.1 0.6-56.1c-8.3-10.4-25.2-9.8-35.1-18.7-9.8-8.7-12-23-13.7-36.1-5.3-38.6-12.6-76.9-21.9-114.6 29.2 8.5 58.1 17.9 85.8 30.5 15.4 7.1 31.6 15.7 39.3 30.8 7.8 15.2 5.3 33.3 5.1 50.4-0.1 5.6 0.1 11.3 2.5 16.3 6 12.9 22.5 15.8 34.9 22.9 13.6 7.9 23.1 22.5 24.7 38.1 1.5 14.2-3.1 28.7-0.4 42.7 5.9 31 43.2 45.4 58 73.3 15.6 29.2-9.6 59.3-34.4 81.1z"/>
					<path id="&lt;Path&gt;" class="s2" d="m537.6 1246.1c-0.5 0-1-0.4-1-0.9-5.9-33.9-26.4-125.6-61.9-229.9-26.1-76.5-56.4-148.9-89.9-215-41.8-82.6-89-155.8-140.1-217.4-0.4-0.4-0.3-1.1 0.1-1.5 0.5-0.3 1.1-0.3 1.5 0.2 51.2 61.7 98.5 135 140.4 217.8 33.6 66.2 63.9 138.6 90 215.2 35.6 104.4 56.1 196.2 62 230.2 0.1 0.6-0.3 1.1-0.9 1.2q-0.1 0.1-0.2 0.1z"/>
				</g>
				<g id="&lt;Group&gt;">
					<path id="&lt;Path&gt;" class="s1" d="m-0.2 880.9c10.1 8 14.3 21.1 19.4 32.9 5.1 11.8 12.9 24.2 25.4 27.2 13.6 3.3 27.9-5.7 41.5-2.6 11 2.4 18.9 12.1 24.7 21.8 5.8 9.7 10.9 20.4 19.9 27.2 14 10.6 33.4 9.3 50.8 6.9 17.4-2.4 36.3-5.1 51.5 3.7 18.4 10.8 25.3 35.3 43.6 46.3 7.8 4.6 17 6.4 26.1 7.1 27 2 54.6-5.3 77.1-20.3-1.3-24.6-9.8-51.2-25.3-70.4-15.5-19.2-38.7-32.6-63.4-33.9-7.8-0.4-15.8 0.4-23.5-0.9-32.6-5.5-49.6-43.3-79.8-56.7-12.8-5.7-27.8-6.6-41.2-2.3-13.1 4.1-24.8 12.9-38.4 14.3-13.4 1.5-26.3-4.3-39.2-8-24.8-6.9-44.9-1.1-69.2 7.7z"/>
					<path id="&lt;Path&gt;" class="s2" d="m528.5 1237.3c-0.5 0-0.9-0.3-1.1-0.8-15.5-60.6-50.2-118.8-100.4-168.1-43.2-42.4-98.6-79.1-164.7-109.1-71.2-32.3-153.2-56.7-258.3-77-0.6-0.1-1-0.7-0.9-1.2 0.1-0.6 0.7-1 1.3-0.9 105.2 20.3 187.5 44.8 258.8 77.2 66.3 30.1 121.9 66.9 165.2 109.5 50.5 49.6 85.5 108.1 101.1 169.1 0.1 0.6-0.2 1.2-0.8 1.3q-0.1 0-0.2 0z"/>
				</g>
				<path id="&lt;Path&gt;" class="s1" d="m570.3 879.8c-15.5 3-32.3-1.2-44.5-11.2-12.3-9.9-19.8-25.5-20.1-41.3-0.1-12 3.6-23.6 7.8-34.9 1.4-3.9 2.9-7.9 2.3-11.9-0.4-3.3-2-6.2-3.8-9-6.6-10.2-15.9-19.1-19.5-30.9-6.2-20.8 7.7-43.2 3.3-64.5-1.5-7.4-5.1-14.2-7.8-21.3-9.1-25-4.3-54.7 12.3-75.6 23.4 9.4 38.7 34.4 38.9 59.6 0.1 12.6-3.3 25.9 2 37.3 3.2 6.8 9.1 11.8 14.7 16.9 9.7 8.9 19 19.1 22.5 31.8 5.4 20-4.9 42 1.7 61.6 6.7 19.4 28.3 31 34.2 50.6 1.6 5.3 1.9 10.9 1.5 16.4-0.7 8.4-3.5 17.1-9.9 22.7-9.8 8.7-22.7 1.2-35.6 3.7z"/>
				<path id="&lt;Path&gt;" class="s2" d="m579.1 1242.6c-0.6 0-1-0.4-1.1-1-4.6-54-3.3-109.2-2.1-162.6 1.7-73.9 3.4-150.3-10.4-223.9-7.1-38.1-18.6-76-29.6-112.6-15.4-51-31.3-103.7-35.8-157.6-0.1-0.5 0.4-1.1 1-1.1 0.5 0 1.1 0.4 1.1 1 4.5 53.6 20.4 106.2 35.7 157.1 11.1 36.7 22.5 74.6 29.7 112.8 13.9 73.9 12.1 150.4 10.4 224.4-1.2 53.3-2.5 108.5 2.1 162.3 0.1 0.6-0.4 1.1-0.9 1.2q-0.1 0-0.1 0z"/>
			</g>
			<path id="&lt;Path&gt;" class="s3" d="m462.1 1582.3c0 0-98.2-331.9-82.4-340.6 15.8-8.8 403.6-9.2 403.6-9.2 0 0-44.5 349.1-56.9 349.8-12.3 0.8-231.6 1.6-264.3 0z"/>
			<g id="&lt;Clip Group&gt;">
				<path id="&lt;Path&gt;" class="s2" d="m462.1 1582.3c0 0-98.2-331.9-82.4-340.6 15.8-8.8 403.6-9.2 403.6-9.2 0 0-44.5 349.1-56.9 349.8-12.3 0.8-231.6 1.6-264.3 0z"/>
			</g>
		</g>
		<g id="&lt;Group&gt;">
			<g id="&lt;Group&gt;">
				<g id="&lt;Group&gt;">
					<path id="&lt;Path&gt;" class="s3" d="m1489.9 1533.1h-277.4v-235.8h277.4z"/>
					<path id="&lt;Path&gt;" class="s2" d="m1581.4 1583.2h-453.7c-11.5 0-20.9-9.3-20.9-20.8v-8.5c0-11.5 9.4-20.8 20.9-20.8h453.7c11.5 0 20.8 9.3 20.8 20.8v8.5c0 11.5-9.3 20.8-20.8 20.8z"/>
				</g>
				<path id="&lt;Path&gt;" class="s4" d="m654.1 475.1c0.6-1.2 1.8-2 3.1-2 56-0.3 1341.2-8.9 1398.2 0 22.4 3.6 16.8 858.1 0 890.8-12.4 24-1384.1 2.9-1400.1 0-19.6-3.6-29.4-832.7-1.2-888.8z"/>
				<path id="&lt;Path&gt;" class="s1" d="m687.9 514.4c0 0-4.4 729.6 13.2 731.6 17.6 2 1299.5 10 1310.5 0 11-10 15.4-737.6 0-737.6-15.4 0-1323.7 6-1323.7 6z"/>
				<g id="&lt;Clip Group&gt;">
					<path id="&lt;Path&gt;" class="s5" d="m687.9 514.4c0 0-4.4 729.6 13.2 731.6 17.6 2 1299.5 10 1310.5 0 11-10 15.4-737.6 0-737.6-15.4 0-1323.7 6-1323.7 6z"/>
					<path id="&lt;Path&gt;" class="s5" d="m1145.4 1271.6l478.8-783.9h210.2l-461.4 779.8z"/>
					<path id="&lt;Path&gt;" class="s5" d="m1923.2 490.6l-463.6 781.7 287.2-3.6 308.4-567.7-6.2-205.5z"/>
				</g>
			</g>
			<path id="&lt;Path&gt;" class="s3" d="m1384.9 1319.4c0 18.7-15.1 33.8-33.7 33.8-18.6 0-33.7-15.1-33.7-33.8 0-18.6 15.1-33.7 33.7-33.7 18.6 0 33.7 15.1 33.7 33.7z"/>
			<g id="&lt;Group&gt;">
				<path id="&lt;Compound Path&gt;" class="s6" d="m1033.2 829.6q2.4-11.6 9.7-17.6 7.2-6 15.9-6.2 8.7-0.2 16.5 5.2 7.9 5.4 11.2 16.5 0.4 26.9 0.4 53.2 0 26.3 0.9 52.7 18.1 0 35.3-0.4 17.2-0.4 32.9-0.4 11.2 3.3 16.5 10.5 5.4 7.3 5.2 15.1-0.2 7.9-6.2 14.5-6 6.6-17.6 9.1-16.1 0-32.2 0.2-16.2 0.2-32.3-0.2 0.8 20.7 1 44.9 0.2 24.2 0.7 44.8-0.9 13.7-8.9 20.3-8.1 6.6-18 6.6-9.9 0-18.8-6.8-8.9-6.8-10.6-20.1-0.4-21.1 0.6-44.4 1.1-23.4 0.2-44.5-17.7-0.4-38.2-1.8-20.5-1.5-39.7-6-19.2-4.6-35.4-12.9-16.1-8.2-26-21.9-9.1-12.8-10.4-27.7-1.2-14.9 2.9-30.6 4.2-15.7 12.4-31.8 8.3-16.2 18-31 9.8-14.9 19.5-28 9.7-13 17.1-22.9 16.6-22.3 33.9-43.4 17.4-21.1 34.8-42.6 9.1-7.5 18.8-7.7 9.7-0.2 16.7 4.8 7.1 5 9.8 14 2.6 9.1-1.5 20.3-14 17.4-33.1 39.5-19 22.1-37.4 46.3-18.4 24.2-33.5 49.2-15.1 25.1-21.3 48.6-2.5 8.3 1.9 14.3 4.3 6 12.8 9.9 8.5 3.9 19.6 6.4 11.2 2.5 22.2 3.7 10.9 1.3 20.2 1.9 9.3 0.6 14.3 1-0.8-26-0.8-52.3 0-26.2 0-52.3z"/>
				<path id="&lt;Compound Path&gt;" fill-rule="evenodd" class="s6" d="m1233.7 1020.3q-5.3-17.8-10.7-44.5-5.4-26.7-8.1-57.7-2.7-31-1.8-63.7 0.8-32.6 7.2-62.4 6.4-29.8 19.6-54.2 13.3-24.4 35.2-38.4 27.3-17.4 56.2-24.9 29-7.4 56.7-5.8 27.7 1.7 52.7 11.8 25 10.2 43.8 27.5 18.9 17.4 30.2 41.8 11.4 24.4 12.2 54.6 0.4 28.5 2.1 61 1.6 32.5 0.2 65.1-1.4 32.7-8.5 63.1-7 30.4-23.1 54.8-13.7 20.7-36.6 33.5-23 12.8-49.7 18-26.6 5.1-54.7 2.6-28.2-2.4-52.8-12.6-24.6-10.1-43.4-27.5-18.8-17.3-26.7-42.1zm69.1-273.4q-10.8 8.3-19.2 24.2-8.5 15.9-9.8 33.7-1.6 24.8-3.3 50.2-1.6 25.5-1.2 50.3 0.4 24.8 4.1 48.8 3.8 24 13.7 45.9 6.2 14.5 18.4 24.4 12.2 9.9 27.3 15.3 15.1 5.4 32 6 17 0.6 33.1-3.3 16.1-3.9 30.4-12.6 14.3-8.7 24.2-22.4 7-8.6 11.4-24.2 4.3-15.5 6.4-34.5 2-19 2.5-39.3 0.4-20.2 0-38.4-0.5-18.2-0.9-32.5-0.4-14.3-0.4-20.9 0.4-19.8-6.4-37-6.8-17.1-18.8-30-12-12.8-28.3-20.6-16.4-7.9-35.2-9.1-18.8-1.3-39.3 4.9-20.4 6.2-40.7 21.1z"/>
				<path id="&lt;Compound Path&gt;" class="s6" d="m1722.1 829.6q2.5-11.6 9.7-17.6 7.3-6 16-6.2 8.6-0.2 16.5 5.2 7.8 5.4 11.2 16.5 0.4 26.9 0.4 53.2 0 26.3 0.8 52.7 18.2 0 35.4-0.4 17.1-0.4 32.8-0.4 11.2 3.3 16.6 10.5 5.4 7.3 5.1 15.1-0.2 7.9-6.2 14.5-6 6.6-17.5 9.1-16.2 0-32.3 0.2-16.1 0.2-32.2-0.2 0.8 20.7 1 44.9 0.2 24.2 0.6 44.8-0.8 13.7-8.9 20.3-8 6.6-18 6.6-9.9 0-18.8-6.8-8.9-6.8-10.5-20.1-0.4-21.1 0.6-44.4 1-23.4 0.2-44.5-17.8-0.4-38.3-1.8-20.4-1.5-39.7-6-19.2-4.6-35.3-12.9-16.1-8.2-26.1-21.9-9.1-12.8-10.3-27.7-1.2-14.9 2.9-30.6 4.1-15.7 12.4-31.8 8.3-16.2 18-31 9.7-14.9 19.4-28 9.7-13 17.2-22.9 16.5-22.3 33.9-43.4 17.4-21.1 34.7-42.6 9.1-7.5 18.8-7.7 9.8-0.2 16.8 4.8 7 5 9.7 14 2.7 9.1-1.4 20.3-14.1 17.4-33.1 39.5-19 22.1-37.4 46.3-18.4 24.2-33.5 49.2-15.1 25.1-21.3 48.6-2.5 8.3 1.8 14.3 4.4 6 12.8 9.9 8.5 3.9 19.7 6.4 11.2 2.5 22.1 3.7 11 1.3 20.3 1.9 9.3 0.6 14.2 1-0.8-26-0.8-52.3 0-26.2 0-52.3z"/>
			</g>
			<g id="&lt;Group&gt;">
				<path id="&lt;Path&gt;" class="s7" d="m952.5 1369.6l-132.6-372.8 33.7 5.4c1.9 0.3 3.5 1.6 4.1 3.4l132.7 364.3c0 0.1 0 0.2-0.1 0.2z"/>
				<g id="&lt;Group&gt;">
					<path id="&lt;Path&gt;" class="s8" d="m526.2 1385.4c5.6-1 280.7-391.5 293.7-388.6 13 2.9 164.2 461.7 158.5 460.8-5.6-0.9-466.1-69.7-452.2-72.2z"/>
					<g id="&lt;Group&gt;">
						<path id="&lt;Compound Path&gt;" class="s6" d="m777.1 1322.2q-3.2 2.9-6.5 3.8-3.3 0.8-6.3-0.1-3-0.9-5.5-3.4-2.4-2.5-3.7-6.5 2-24.6 3.1-50 1.1-25.4 2.7-50.5 1.7-25.1 4.8-49.4 3.1-24.3 9.2-46.8 0.5-1.8 3.4-3.3 2.9-1.4 7-2 4.1-0.6 8.9-0.5 4.9 0.1 9.4 1.2 4.5 1 7.9 3 3.5 2 5.1 5.3 2.6 3.5 3.1 12.3 0.5 8.7-0.4 21-0.9 12.4-3.3 27.4-2.3 15.1-5.6 30.9-3.3 15.9-7.2 31.8-3.9 16-8.2 30.2-4.4 14.2-8.8 25.8-4.4 11.7-8.5 18.9 0 0.2-0.6 0.9zm-28.4 62.3q-4.6-3.5-7.3-8-2.8-4.6-3.2-9.3-0.4-4.7 2-9.2 2.4-4.5 8-7.8 7.7-4.7 15.5-3.6 7.7 1.1 11.9 9.4 3.9 7.2 3.8 15.5-0.2 8.3-7.3 14.4-5.2 4.6-11.7 3.8-6.5-0.8-11.7-5.2z"/>
					</g>
				</g>
			</g>
		</g>
		<g id="&lt;Group&gt;">
			<path id="&lt;Path&gt;" class="s3" d="m2300.6 1581.7h-332.9c-6.6 0-12-5.4-12-12.1v-388.8c0-6.7 5.4-12.1 12-12.1h332.9c6.7 0 12.1 5.4 12.1 12.1v388.8c0 6.7-5.4 12.1-12.1 12.1z"/>
			<g id="&lt;Clip Group&gt;">
				<path id="&lt;Path&gt;" class="s2" d="m2300.6 1581.7h-332.9c-6.6 0-12-5.4-12-12.1v-388.8c0-6.7 5.4-12.1 12-12.1h332.9c6.7 0 12.1 5.4 12.1 12.1v388.8c0 6.7-5.4 12.1-12.1 12.1z"/>
			</g>
			<path id="&lt;Path&gt;" class="s8" d="m2050 1168.7c0 0-4.7-339.9 1.6-343.9 6.3-3.9 54.5-7.9 58.4 1.6 4 9.5 0 342.3 0 342.3z"/>
			<g id="&lt;Clip Group&gt;">
				<path id="&lt;Path&gt;" class="s9" d="m2050 1168.7c0 0-4.7-339.9 1.6-343.9 6.3-3.9 54.5-7.9 58.4 1.6 4 9.5 0 342.3 0 342.3z"/>
				<path id="&lt;Path&gt;" class="s1" d="m2039 886.4c0 0 70-5.3 79.8-0.5 0 0-0.5-69.8-4.4-71.3-3.9-1.5-70.8-1.8-72.3 5.9-1.4 7.8-3.1 65.9-3.1 65.9z"/>
			</g>
			<path id="&lt;Path&gt;" class="s1" d="m2284.8 1168.7h-139.4v-490.6c0-2.1 1.6-3.8 3.7-3.8h132c2.1 0 3.7 1.7 3.7 3.8z"/>
			<g id="&lt;Clip Group&gt;">
				<path id="&lt;Path&gt;" class="s5" d="m2284.8 1168.7h-139.4v-490.6c0-2.1 1.6-3.8 3.7-3.8h132c2.1 0 3.7 1.7 3.7 3.8z"/>
				<path id="&lt;Path&gt;" class="s4" d="m2162.9 718.4h-17.5v-6.1h17.5z"/>
				<path id="&lt;Path&gt;" class="s4" d="m2162.9 746.6h-17.5v-6.2h17.5z"/>
				<path id="&lt;Path&gt;" class="s4" d="m2162.9 774.7h-17.5v-6.1h17.5z"/>
				<path id="&lt;Path&gt;" class="s4" d="m2162.9 802.9h-17.5v-6.1h17.5z"/>
				<path id="&lt;Path&gt;" class="s4" d="m2162.9 831.1h-17.5v-6.1h17.5z"/>
				<path id="&lt;Path&gt;" class="s4" d="m2162.9 859.3h-17.5v-6.1h17.5z"/>
				<path id="&lt;Path&gt;" class="s4" d="m2162.9 887.5h-17.5v-6.1h17.5z"/>
				<path id="&lt;Path&gt;" class="s4" d="m2162.9 915.7h-17.5v-6.2h17.5z"/>
				<path id="&lt;Path&gt;" class="s4" d="m2162.9 943.8h-17.5v-6.1h17.5z"/>
				<path id="&lt;Path&gt;" class="s4" d="m2162.9 972h-17.5v-6.1h17.5z"/>
				<path id="&lt;Path&gt;" class="s4" d="m2162.9 1000.2h-17.5v-6.1h17.5z"/>
				<path id="&lt;Path&gt;" class="s4" d="m2162.9 1028.4h-17.5v-6.1h17.5z"/>
				<path id="&lt;Path&gt;" class="s4" d="m2162.9 1056.6h-17.5v-6.1h17.5z"/>
				<path id="&lt;Path&gt;" class="s4" d="m2162.9 1084.8h-17.5v-6.2h17.5z"/>
				<path id="&lt;Path&gt;" class="s4" d="m2162.9 1112.9h-17.5v-6.1h17.5z"/>
				<path id="&lt;Path&gt;" class="s4" d="m2162.9 1141.1h-17.5v-6.1h17.5z"/>
				<path id="&lt;Path&gt;" class="s10" d="m2254.7 655.7c-38.7 33.1-52.3 92.4-31.9 139.1 9.7 22.2 26.4 42.1 29.5 66.1 3 23.3-7.3 46-15.4 68.1-8 21.8-14.1 44.8-12.5 67.9 2.7 37.8 25.9 73.2 22.1 111-3.7 36.2-31.9 67.8-30.2 104.1 0.4 0-0.5 1.6-0.1 1.6h90.7l-0.1-560.3 11.2 0.2z"/>
			</g>
		</g>
		<path id="&lt;Path&gt;" class="s2" d="m2555.8 1587.5h-2289.5c-2.3 0-4.2-1.9-4.2-4.3 0-2.3 1.9-4.2 4.2-4.2h2289.5c2.4 0 4.3 1.9 4.3 4.2 0 2.4-1.9 4.3-4.3 4.3z"/>
		<g id="&lt;Group&gt;">
			<g id="&lt;Group&gt;">
				<path id="&lt;Path&gt;" class="s11" d="m964.4 416l-53 6.9c-29.1-13.7-57.4-22.5-83.7-19.8-26.5 2.8-41.7 30.5-35.1 49.1 5.7 16.4 53.3 33.3 73.8 33.7 20.6 0.3 51.8-4.4 63.2-14.5q0-0.1 0.1-0.1h34.7z"/>
				<g id="&lt;Clip Group&gt;">
					<path id="&lt;Path&gt;" class="s12" d="m964.4 416l-53 6.9c-29.1-13.7-57.4-22.5-83.7-19.8-26.5 2.8-41.7 30.5-35.1 49.1 5.7 16.4 53.3 33.3 73.8 33.7 20.6 0.3 51.8-4.4 63.2-14.5q0-0.1 0.1-0.1h34.7z"/>
				</g>
				<path id="&lt;Path&gt;" class="s12" d="m929.6 471.4c0 0 10.5-16.2-13.9-32.4 0 0 21.8 3.5 29.2 18 7.5 14.5 6 14.7 6 14.7z"/>
			</g>
			<path id="&lt;Path&gt;" class="s3" d="m911.4 422.9c0 0-16.9 1.5-20.2 1.6-11.9 0.3-23.8 0.9-23.8 0.9 0 0-7.4-24-18.3-19.1-16 7.2 2.2 18.5 2.2 18.5 0 0-28.4-4.8-31.2-4.9-2.7-0.2 21.3 50.6-4.4 66-25.6 15.4-54.2 7.3-57.8-32.7-3.6-40 37.4-78.3 75.1-77 37.7 1.3 78.4 46.7 78.4 46.7z"/>
			<g id="&lt;Clip Group&gt;">
				<path id="&lt;Path&gt;" class="s2" d="m911.4 422.9c0 0-16.9 1.5-20.2 1.6-11.9 0.3-23.8 0.9-23.8 0.9 0 0-7.4-24-18.3-19.1-16 7.2 2.2 18.5 2.2 18.5 0 0-28.4-4.8-31.2-4.9-2.7-0.2 21.3 50.6-4.4 66-25.6 15.4-54.2 7.3-57.8-32.7-3.6-40 37.4-78.3 75.1-77 37.7 1.3 78.4 46.7 78.4 46.7z"/>
			</g>
			<path id="&lt;Path&gt;" class="s0" d="m910.3 471.7c0 0-8.1-2.3-8.1-16.3 0-14.1 0-1.5 0-1.5 0 0 8.3 15 8.1 17.8z"/>
			<path id="&lt;Path&gt;" class="s12" d="m844.5 454.6c0 0 32.3 17.5 35.3 15.7 3.1-1.9-2.4-21.6-2.4-21.6 0 0 3.5-0.2 4.3 2.9 0.8 3.2 5.4 21.7 0 22.1-5.4 0.3-31.9-12.8-37.2-19.1z"/>
			<path id="&lt;Path&gt;" class="s11" d="m1031.1 787.9c0 0-7.9 10.7-10.5 16-2.6 5.2-3.4 31.6-2.9 31.5 0.6-0.1 6.4-0.4 7.6-3.9l6.5-22.3c0 0 0.4 23.9-0.4 25.6-0.7 1.7-14.5 29-13.3 29.9 1.2 0.9 6.4 4 10.5-2.8 4-6.8 13.6-24.5 14.8-27.3 1.2-2.8-18.8 37.2-18 37.5 0.8 0.4 5.9 3 8 0.4 2-2.6 19.8-31 20.4-33.3 0.6-2.3-11.1 27.2-10.5 27.2 0.6 0 3 3 6.2-1 3.1-4 13.9-25.7 14.4-26.8 0.5-1.1 0.3-14.9 0.3-14.9 0 0 2.7 16.2 2.1 18.3-0.6 2.1-5.6 14.3-3.3 14.8 1.8 0.3 4.8-3 7.1-7.4 2.4-4.3 5.4-10.8 5.2-17-0.2-6.2-11.6-40.8-11.6-40.8z"/>
			<g id="&lt;Clip Group&gt;">
				<path id="&lt;Path&gt;" class="s12" d="m1031.1 787.9c0 0-7.9 10.7-10.5 16-2.6 5.2-3.4 31.6-2.9 31.5 0.6-0.1 6.4-0.4 7.6-3.9l6.5-22.3c0 0 0.4 23.9-0.4 25.6-0.7 1.7-14.5 29-13.3 29.9 1.2 0.9 6.4 4 10.5-2.8 4-6.8 13.6-24.5 14.8-27.3 1.2-2.8-18.8 37.2-18 37.5 0.8 0.4 5.9 3 8 0.4 2-2.6 19.8-31 20.4-33.3 0.6-2.3-11.1 27.2-10.5 27.2 0.6 0 3 3 6.2-1 3.1-4 13.9-25.7 14.4-26.8 0.5-1.1 0.3-14.9 0.3-14.9 0 0 2.7 16.2 2.1 18.3-0.6 2.1-5.6 14.3-3.3 14.8 1.8 0.3 4.8-3 7.1-7.4 2.4-4.3 5.4-10.8 5.2-17-0.2-6.2-11.6-40.8-11.6-40.8z"/>
			</g>
			<g id="&lt;Group&gt;">
				<path id="&lt;Path&gt;" class="s8" d="m1327.6 393.1c0-2.1-1.5-3.9-3.6-4.3l-171.9-30.9c-144.2-12.4-187.7 51.5-187.7 51.5v61.9h16.9c12.5 36.4 48 141 51.6 159.9 4.4 23.1-23.9 162.1-21 163.9 2.9 1.9 66.6 9.7 72.5 8.7 5.9-0.9 35.3-154 33.3-172.5-1.5-14.2-5.9-111.6-16.7-160.5l226.6-0.9z"/>
				<path id="&lt;Path&gt;" class="s9" d="m1101 470.8c0 0-4.3-22.7-23.4-38.5 0 0 101.9 20.4 131.5 22.3 29.6 2 118.5-5.8 118.5-5.8v21.1z"/>
			</g>
			<path id="&lt;Path&gt;" class="s12" d="m1838.7 532c0 0 35.9-8.5 36.8-6.9 0.9 1.6 5.9 18.1 4 24-1.9 6-37.2 18.8-37.2 18.8z"/>
			<g id="&lt;Group&gt;">
				<path id="&lt;Path&gt;" class="s3" d="m1866.7 423c0 0-339.4-27.8-409.9-42.6-70.5-14.8-129.2 17.3-129.2 17.3v72.2c0 0 182.4 155.4 264.2 157.4 81.7 2 252.8-43.6 254.2-51.1 1.3-7.5 0-51.8-6.9-54.5-6.8-2.8-233 23.1-237.1 18.4-2.7-3.1-41-41.6-74.6-70.2h339.3z"/>
				<g id="&lt;Clip Group&gt;">
					<path id="&lt;Compound Path&gt;" class="s2" d="m1866.7 423c0 0-339.4-27.8-409.9-42.6-70.5-14.8-129.2 17.3-129.2 17.3v72.2c0 0 182.4 155.4 264.2 157.4 81.7 2 252.8-43.6 254.2-51.1 1.3-7.5 0-51.8-6.9-54.5-6.8-2.8-233 23.1-237.1 18.4-2.7-3.1-41-41.6-74.6-70.2h339.3z"/>
					<path id="&lt;Path&gt;" class="s2" d="m1339.6 388.3c0 0 3 95.2 1.5 96.7-1.5 1.5-18.3-10.8-18.3-10.8 0 0-2-76-0.4-80.7 1.6-4.7 17.2-5.2 17.2-5.2z"/>
					<path id="&lt;Path&gt;" class="s2" d="m1527.4 469.9c0 0-72.9-60.1-84.2-63 0 0 73.7 16.7 130.7 32.9 57 16.2 298.5 12.9 298.5 12.9v24.1z"/>
				</g>
			</g>
			<path id="&lt;Path&gt;" class="s3" d="m1874.1 524.9c0 0 5.8-9.3 16.7-10.8 10.8-1.5 14.4 0 14.4 0 0 0 29.1 78.9 23.8 80.6-5.3 1.7-17.2 1.9-20.8-1.4-3.7-3.3-31.1-41.5-31.1-41.5 0 0 1.8-20.6-3-26.9z"/>
			<g id="&lt;Clip Group&gt;">
				<path id="&lt;Path&gt;" class="s2" d="m1874.1 524.9c0 0 5.8-9.3 16.7-10.8 10.8-1.5 14.4 0 14.4 0 0 0 29.1 78.9 23.8 80.6-5.3 1.7-17.2 1.9-20.8-1.4-3.7-3.3-31.1-41.5-31.1-41.5 0 0 1.8-20.6-3-26.9z"/>
				<path id="&lt;Path&gt;" class="s2" d="m1890.1 573.8c0 0 7.8-8.9 11.5-8.7 2.3 0.2 3.3 1.7 3.7 2.9 0.3 0.8 0.1 1.6-0.4 2.2-2.2 2.5-8.5 9.5-9.9 9.2-1.7-0.5-4.9-5.6-4.9-5.6z"/>
				<path id="&lt;Path&gt;" class="s2" d="m1897.3 512.2c0 0 27.3 81.7 27.1 85.2 0 0 9.1-0.6 9.1-2.9 0-2.3-22.4-81.9-25.2-82.3-2.9-0.4-11 0-11 0z"/>
			</g>
			<g id="&lt;Group&gt;">
				<path id="&lt;Path&gt;" class="s12" d="m1866.7 439.3c0 0 33.5 4.6 34.1 6.3 0.6 1.7 0.8 24.3 0.8 24.3l-34.9 0.1z"/>
				<path id="&lt;Path&gt;" class="s3" d="m1899.4 444.9c0 0 4-9.9 15.5-10.5 11.6-0.7 38.5 13.7 41 14.7 2.4 1 34.9 9.8 35.4 10.1 7 3.5 0.8 11.8 0.8 11.8l-90.5-1.1z"/>
				<g id="&lt;Clip Group&gt;">
					<path id="&lt;Path&gt;" class="s2" d="m1899.4 444.9c0 0 4-9.9 15.5-10.5 11.6-0.7 38.5 13.7 41 14.7 2.4 1 34.9 9.8 35.4 10.1 7 3.5 0.8 11.8 0.8 11.8l-90.5-1.1z"/>
					<path id="&lt;Path&gt;" class="s2" d="m1918.5 471.8c0.7-2.6 3.3-15 5.2-15.4 1.9-0.5 6.6 0.8 6.5 1.5-0.1 0.7-1.1 14.3-4.3 14.3-3.1 0-7.4-0.4-7.4-0.4z"/>
					<path id="&lt;Path&gt;" class="s2" d="m1936.9 475.3c0.8-2.5 3.3-14.9 5.2-15.4 2-0.4 6.7 0.9 6.5 1.6-0.1 0.7-1.1 14.3-4.2 14.3-3.2 0-7.5-0.5-7.5-0.5z"/>
				</g>
			</g>
		</g>
	</g>
</svg>